<svg width="20" height="18" viewBox="0 0 20 18" fill="none" xmlns="http://www.w3.org/2000/svg">
<path d="M18.5 4.238V3.11902L17.6664 3.86553L10.0695 10.669L2.3308 3.84107L1.5 3.10805V4.216V16V16.5H2H18H18.5V16V4.238ZM2.511 1.5H1.18865L2.18018 2.37491L9.73018 9.03691L10.0634 9.33095L10.3945 9.03451L17.8355 2.37251L18.8101 1.5H17.502H2.511ZM1 0.5H19C19.1326 0.5 19.2598 0.552679 19.3536 0.646446C19.4473 0.740214 19.5 0.867391 19.5 1V17C19.5 17.1326 19.4473 17.2598 19.3536 17.3536C19.2598 17.4473 19.1326 17.5 19 17.5H1C0.867391 17.5 0.740214 17.4473 0.646446 17.3536C0.552679 17.2598 0.5 17.1326 0.5 17V1C0.5 0.867392 0.552678 0.740215 0.646447 0.646447C0.740215 0.552678 0.867392 0.5 1 0.5Z" stroke="#80909A"/>
</svg>
