<svg width="18" height="18" viewBox="0 0 18 18" fill="none" xmlns="http://www.w3.org/2000/svg">
<path d="M5.70829 7.53726L6.07544 7.27509L7.31342 6.3911C7.31343 6.3911 7.31344 6.39109 7.31344 6.39109C7.41296 6.32001 7.48299 6.21492 7.51026 6.0957C7.53753 5.97648 7.52016 5.85139 7.46142 5.7441L7.46124 5.74378C6.65454 4.26765 6.16935 2.63751 6.03756 0.9605C6.02763 0.835112 5.9708 0.718075 5.8784 0.632726C5.78601 0.547376 5.66484 0.499984 5.53906 0.5H5.539H1.077H1.07689C0.953095 0.499973 0.83369 0.545874 0.741787 0.628817C0.649884 0.71176 0.592019 0.825849 0.579392 0.949L0.57933 0.94961C0.526158 1.46199 0.5 1.97876 0.5 2.5C0.5 10.7839 7.21614 17.5 15.5 17.5C16.0212 17.5 16.538 17.4738 17.0504 17.4207L17.051 17.4206C17.1742 17.408 17.2882 17.3501 17.3712 17.2582C17.4541 17.1663 17.5 17.0469 17.5 16.9231V16.923V12.461V12.4609C17.5 12.3352 17.4526 12.214 17.3673 12.1216C17.282 12.0293 17.1651 11.9725 17.0398 11.9625C17.0397 11.9625 17.0396 11.9624 17.0395 11.9624L17.079 11.464C15.4722 11.3378 13.9103 10.8729 12.496 10.1L5.70829 7.53726ZM5.70829 7.53726L5.93146 7.92934C6.91425 9.6559 8.3441 11.0858 10.0707 12.0685L10.4627 12.2917L10.7249 11.9246L11.6089 10.6866L5.70829 7.53726ZM6.0346 6.07488L6.37193 5.83395L6.19768 5.45782C5.67857 4.33731 5.32291 3.14811 5.14158 1.92658L5.07826 1.5H4.647H2.01H1.52775L1.51033 1.98194C1.50411 2.15401 1.501 2.32696 1.501 2.49993C1.49996 10.2321 7.76787 16.5 15.5 16.5C15.6729 16.5 15.847 16.4969 16.0211 16.4896L16.5 16.4694V15.99V13.353V12.9217L16.0734 12.8584C14.8519 12.6771 13.6627 12.3214 12.5422 11.8023L12.166 11.6281L11.9251 11.9654L10.7977 13.544C10.3995 13.3742 10.0107 13.1828 9.63303 12.9707C9.63265 12.9705 9.63228 12.9703 9.6319 12.9701L9.57631 12.9384C7.69301 11.8666 6.13341 10.307 5.06158 8.42374C5.06157 8.42372 5.06156 8.4237 5.06155 8.42369L5.02991 8.3681C5.02969 8.3677 5.02947 8.3673 5.02924 8.3669C4.81716 7.9893 4.62581 7.60052 4.45604 7.20231L6.0346 6.07488Z" stroke="#80909A"/>
</svg>
