<svg width="26" height="26" viewBox="0 0 26 26" fill="none" xmlns="http://www.w3.org/2000/svg">
<path d="M2.17514 19.2503C1.64672 18.3365 1.23597 17.3596 0.952637 16.3428C1.56927 16.0291 2.08713 15.551 2.44892 14.9614C2.81072 14.3717 3.00234 13.6935 3.0026 13.0017C3.00286 12.3098 2.81174 11.6315 2.45039 11.0415C2.08904 10.4516 1.57154 9.9731 0.955137 9.65902C1.52018 7.61587 2.59605 5.75021 4.08139 4.23777C4.6615 4.61492 5.33466 4.82422 6.02636 4.84249C6.71806 4.86077 7.40133 4.68731 8.00055 4.34131C8.59977 3.99531 9.09158 3.49026 9.42155 2.88207C9.75151 2.27387 9.90677 1.58624 9.87014 0.895267C11.9228 0.364795 14.0767 0.365655 16.1289 0.897767C16.0926 1.58872 16.2481 2.27625 16.5784 2.88428C16.9086 3.4923 17.4006 3.99711 17.9999 4.34284C18.5993 4.68858 19.2826 4.86175 19.9742 4.84321C20.6659 4.82466 21.3389 4.61512 21.9189 4.23777C22.6426 4.97527 23.2851 5.81402 23.8251 6.75027C24.3664 7.68652 24.7714 8.66277 25.0476 9.65777C24.431 9.97139 23.9131 10.4495 23.5514 11.0391C23.1896 11.6288 22.9979 12.3071 22.9977 12.9989C22.9974 13.6907 23.1885 14.3691 23.5499 14.959C23.9112 15.549 24.4287 16.0274 25.0451 16.3415C24.4801 18.3847 23.4042 20.2503 21.9189 21.7628C21.3388 21.3856 20.6656 21.1763 19.9739 21.158C19.2822 21.1398 18.5989 21.3132 17.9997 21.6592C17.4005 22.0052 16.9087 22.5103 16.5787 23.1185C16.2488 23.7267 16.0935 24.4143 16.1301 25.1053C14.0775 25.6357 11.9236 25.6349 9.87139 25.1028C9.90769 24.4118 9.75213 23.7243 9.42191 23.1163C9.09169 22.5082 8.59969 22.0034 8.00035 21.6577C7.40101 21.312 6.71771 21.1388 6.02604 21.1573C5.33438 21.1759 4.66134 21.3854 4.08139 21.7628C3.34263 21.0089 2.70213 20.1648 2.17514 19.2503ZM9.25014 19.4953C10.5822 20.2636 11.5837 21.4965 12.0626 22.9578C12.6864 23.0165 13.3126 23.0178 13.9364 22.959C14.4156 21.4976 15.4176 20.2646 16.7501 19.4965C18.0817 18.7261 19.6508 18.4746 21.1564 18.7903C21.5189 18.2803 21.8314 17.7365 22.0914 17.1678C21.0657 16.0221 20.499 14.538 20.5001 13.0003C20.5001 11.4253 21.0876 9.95402 22.0914 8.83277C21.8295 8.2642 21.5157 7.72106 21.1539 7.21027C19.6492 7.52565 18.0811 7.27461 16.7501 6.50527C15.4181 5.73698 14.4166 4.504 13.9376 3.04277C13.3139 2.98402 12.6876 2.98277 12.0639 3.04152C11.5846 4.50295 10.5826 5.73597 9.25014 6.50402C7.91862 7.27441 6.34948 7.52592 4.84389 7.21027C4.48209 7.72062 4.16905 8.26384 3.90889 8.83277C4.9346 9.97847 5.50124 11.4625 5.50014 13.0003C5.50014 14.5753 4.91264 16.0465 3.90889 17.1678C4.17073 17.7363 4.48456 18.2795 4.84639 18.7903C6.35103 18.4749 7.91915 18.7259 9.25014 19.4953ZM13.0001 16.7503C12.0056 16.7503 11.0517 16.3552 10.3485 15.6519C9.64522 14.9487 9.25014 13.9948 9.25014 13.0003C9.25014 12.0057 9.64522 11.0519 10.3485 10.3486C11.0517 9.64536 12.0056 9.25027 13.0001 9.25027C13.9947 9.25027 14.9485 9.64536 15.6518 10.3486C16.3551 11.0519 16.7501 12.0057 16.7501 13.0003C16.7501 13.9948 16.3551 14.9487 15.6518 15.6519C14.9485 16.3552 13.9947 16.7503 13.0001 16.7503ZM13.0001 14.2503C13.3317 14.2503 13.6496 14.1186 13.884 13.8841C14.1184 13.6497 14.2501 13.3318 14.2501 13.0003C14.2501 12.6687 14.1184 12.3508 13.884 12.1164C13.6496 11.882 13.3317 11.7503 13.0001 11.7503C12.6686 11.7503 12.3507 11.882 12.1163 12.1164C11.8818 12.3508 11.7501 12.6687 11.7501 13.0003C11.7501 13.3318 11.8818 13.6497 12.1163 13.8841C12.3507 14.1186 12.6686 14.2503 13.0001 14.2503Z" fill="#00B140"/>
</svg>
