<svg width="28" height="26" viewBox="0 0 28 26" fill="none" xmlns="http://www.w3.org/2000/svg">
<path d="M25.25 14.5525V23H26.5V25.5H1.5V23H2.75V14.5525C1.98046 14.0389 1.34964 13.3432 0.913525 12.5272C0.477409 11.7112 0.24949 10.8002 0.250001 9.875C0.250001 8.84125 0.530001 7.845 1.04125 6.99625L4.43125 1.125C4.54096 0.934981 4.69875 0.777186 4.88877 0.667476C5.07879 0.557766 5.29433 0.500006 5.51375 0.5H22.4875C22.7069 0.500006 22.9225 0.557766 23.1125 0.667476C23.3025 0.777186 23.4603 0.934981 23.57 1.125L26.9475 6.9775C27.6932 8.21609 27.9329 9.69442 27.6168 11.1052C27.3006 12.5159 26.453 13.7506 25.25 14.5525ZM22.75 15.465C21.8905 15.5614 21.0204 15.4582 20.2074 15.1633C19.3944 14.8685 18.6604 14.3899 18.0625 13.765C17.5378 14.3138 16.9072 14.7507 16.209 15.0491C15.5108 15.3475 14.7593 15.5013 14 15.5013C13.2409 15.5016 12.4895 15.3482 11.7913 15.0502C11.0931 14.7522 10.4625 14.3159 9.9375 13.7675C9.33953 14.3922 8.60547 14.8705 7.79244 15.1651C6.97941 15.4598 6.10936 15.5628 5.25 15.4662V23H22.75V15.4662V15.465ZM6.23625 3L3.195 8.26625C2.89947 8.99643 2.8906 9.81128 3.17016 10.5477C3.44973 11.2842 3.9971 11.8879 4.70273 12.238C5.40836 12.5881 6.22018 12.6588 6.97573 12.436C7.73127 12.2132 8.37479 11.7133 8.7775 11.0363C9.19625 9.99 10.6775 9.99 11.0975 11.0363C11.3291 11.6168 11.7295 12.1145 12.2469 12.4651C12.7643 12.8158 13.375 13.0032 14 13.0032C14.625 13.0032 15.2357 12.8158 15.7531 12.4651C16.2705 12.1145 16.6709 11.6168 16.9025 11.0363C17.3213 9.99 18.8025 9.99 19.2225 11.0363C19.3847 11.4356 19.6278 11.797 19.9364 12.0978C20.2451 12.3987 20.6126 12.6324 21.0159 12.7844C21.4192 12.9364 21.8496 13.0032 22.2801 12.9809C22.7105 12.9585 23.1316 12.8473 23.517 12.6543C23.9024 12.4613 24.2437 12.1907 24.5194 11.8594C24.7952 11.5282 24.9994 11.1435 25.1193 10.7295C25.2392 10.3155 25.2722 9.88116 25.2162 9.45382C25.1602 9.02647 25.0163 8.61533 24.7938 8.24625L21.7625 3H6.2375H6.23625Z" fill="#00B140"/>
</svg>