<svg width="28" height="28" viewBox="0 0 28 28" fill="none" xmlns="http://www.w3.org/2000/svg">
<path d="M23.9225 8.99963H25.25C25.913 8.99963 26.5489 9.26302 27.0178 9.73186C27.4866 10.2007 27.75 10.8366 27.75 11.4996V16.4996C27.75 17.1627 27.4866 17.7986 27.0178 18.2674C26.5489 18.7362 25.913 18.9996 25.25 18.9996H23.9225C23.6178 21.4163 22.4416 23.6386 20.6147 25.2496C18.7878 26.8606 16.4358 27.7496 14 27.7496V25.2496C15.9891 25.2496 17.8968 24.4595 19.3033 23.0529C20.7098 21.6464 21.5 19.7388 21.5 17.7496V10.2496C21.5 8.26051 20.7098 6.35285 19.3033 4.94633C17.8968 3.53981 15.9891 2.74963 14 2.74963C12.0109 2.74963 10.1032 3.53981 8.6967 4.94633C7.29018 6.35285 6.5 8.26051 6.5 10.2496V18.9996H2.75C2.08696 18.9996 1.45107 18.7362 0.982233 18.2674C0.513392 17.7986 0.25 17.1627 0.25 16.4996V11.4996C0.25 10.8366 0.513392 10.2007 0.982233 9.73186C1.45107 9.26302 2.08696 8.99963 2.75 8.99963H4.0775C4.38254 6.58325 5.55885 4.36122 7.38572 2.75048C9.21258 1.13973 11.5644 0.250977 14 0.250977C16.4356 0.250977 18.7874 1.13973 20.6143 2.75048C22.4411 4.36122 23.6175 6.58325 23.9225 8.99963ZM2.75 11.4996V16.4996H4V11.4996H2.75ZM24 11.4996V16.4996H25.25V11.4996H24ZM8.7 18.7309L10.025 16.6109C11.2163 17.3572 12.5942 17.7519 14 17.7496C15.4058 17.7519 16.7837 17.3572 17.975 16.6109L19.3 18.7309C17.7116 19.7261 15.8744 20.2525 14 20.2496C12.1256 20.2525 10.2884 19.7261 8.7 18.7309Z" fill="#80909A"/>
</svg>
